HIERARCHY
ROOT Hips
{
    OFFSET   0.000000   0.000000   0.000000
    CHANNELS 6 Xposition Yposition Zposition Zrotation Xrotation Yrotation
    JOINT Chest
    {
        OFFSET   0.000000   8.007240   0.000000
        CHANNELS 3 Zrotation Xrotation Yrotation
        JOINT Chest2
        {
            OFFSET   0.000000  22.077100   0.000000
            CHANNELS 3 Zrotation Xrotation Yrotation
            JOINT Neck
            {
                OFFSET   0.000000  23.254800   0.000000
                CHANNELS 3 Zrotation Xrotation Yrotation
                JOINT Head
                {
                    OFFSET   0.000000  14.370000   1.956600
                    CHANNELS 3 Zrotation Xrotation Yrotation
                    End Site
                    {
                        OFFSET   0.000000  19.566000   0.000000
                    }
                }
            }
            JOINT LeftCollar
            {
                OFFSET   3.911900  19.017000  -0.467064
                CHANNELS 3 Zrotation Xrotation Yrotation
                JOINT LeftShoulder
                {
                    OFFSET  10.383700   0.000000   0.000000
                    CHANNELS 3 Zrotation Xrotation Yrotation
                    JOINT LeftElbow
                    {
                        OFFSET  26.662100   0.001476   0.000517
                        CHANNELS 3 Zrotation Xrotation Yrotation
                        JOINT LeftWrist
                        {
                            OFFSET  28.869000  -0.000025  -0.000106
                            CHANNELS 3 Zrotation Xrotation Yrotation
                            JOINT LeftFinger0
                            {
                                OFFSET   2.044660  -2.323460   3.252850
                                CHANNELS 3 Zrotation Xrotation Yrotation
                                JOINT LeftFinger01
                                {
                                    OFFSET   3.088130   0.000000   0.000000
                                    CHANNELS 3 Zrotation Xrotation Yrotation
                                    JOINT LeftFinger02
                                    {
                                        OFFSET   2.639460   0.000000   0.000000
                                        CHANNELS 3 Zrotation Xrotation Yrotation
                                        End Site
                                        {
                                            OFFSET   2.582190   0.000000   0.000000
                                        }
                                    }
                                }
                            }
                            JOINT LeftFinger1
                            {
                                OFFSET   8.364480   0.000000   3.252850
                                CHANNELS 3 Zrotation Xrotation Yrotation
                                JOINT LeftFinger11
                                {
                                    OFFSET   4.646930   0.000000   0.000000
                                    CHANNELS 3 Zrotation Xrotation Yrotation
                                    JOINT LeftFinger12
                                    {
                                        OFFSET   2.323460   0.000000   0.000000
                                        CHANNELS 3 Zrotation Xrotation Yrotation
                                        End Site
                                        {
                                            OFFSET   2.273050   0.000000   0.000000
                                        }
                                    }
                                }
                            }
                            JOINT LeftFinger2
                            {
                                OFFSET   8.364490   0.000015   1.078090
                                CHANNELS 3 Zrotation Xrotation Yrotation
                                JOINT LeftFinger21
                                {
                                    OFFSET   5.111620   0.000000   0.000000
                                    CHANNELS 3 Zrotation Xrotation Yrotation
                                    JOINT LeftFinger22
                                    {
                                        OFFSET   2.788160   0.000016   0.000000
                                        CHANNELS 3 Zrotation Xrotation Yrotation
                                        End Site
                                        {
                                            OFFSET   2.727660   0.000000   0.000000
                                        }
                                    }
                                }
                            }
                            JOINT LeftFinger3
                            {
                                OFFSET   7.899780   0.000017  -1.078090
                                CHANNELS 3 Zrotation Xrotation Yrotation
                                JOINT LeftFinger31
                                {
                                    OFFSET   4.646930   0.000000   0.000000
                                    CHANNELS 3 Zrotation Xrotation Yrotation
                                    JOINT LeftFinger32
                                    {
                                        OFFSET   2.323470   0.000000   0.000000
                                        CHANNELS 3 Zrotation Xrotation Yrotation
                                        End Site
                                        {
                                            OFFSET   2.273050   0.000000   0.000000
                                        }
                                    }
                                }
                            }
                            JOINT LeftFinger4
                            {
                                OFFSET   7.435090   0.000000  -3.252850
                                CHANNELS 3 Zrotation Xrotation Yrotation
                                JOINT LeftFinger41
                                {
                                    OFFSET   3.717550   0.000000   0.000000
                                    CHANNELS 3 Zrotation Xrotation Yrotation
                                    JOINT LeftFinger42
                                    {
                                        OFFSET   1.858770   0.000000   0.000000
                                        CHANNELS 3 Zrotation Xrotation Yrotation
                                        End Site
                                        {
                                            OFFSET   1.818440   0.000000   0.000000
                                        }
                                    }
                                }
                            }
                        }
                    }
                }
            }
            JOINT RightCollar
            {
                OFFSET  -3.911900  19.017000  -0.467063
                CHANNELS 3 Zrotation Xrotation Yrotation
                JOINT RightShoulder
                {
                    OFFSET -10.383700   0.000019   0.000000
                    CHANNELS 3 Zrotation Xrotation Yrotation
                    JOINT RightElbow
                    {
                        OFFSET -26.662100   0.001175   0.000102
                        CHANNELS 3 Zrotation Xrotation Yrotation
                        JOINT RightWrist
                        {
                            OFFSET -28.869000   0.000016  -0.000079
                            CHANNELS 3 Zrotation Xrotation Yrotation
                            JOINT RightFinger0
                            {
                                OFFSET  -2.044660  -2.323490   3.252850
                                CHANNELS 3 Zrotation Xrotation Yrotation
                                JOINT RightFinger01
                                {
                                    OFFSET  -3.088140   0.000000   0.000000
                                    CHANNELS 3 Zrotation Xrotation Yrotation
                                    JOINT RightFinger02
                                    {
                                        OFFSET  -2.639460   0.000000   0.000000
                                        CHANNELS 3 Zrotation Xrotation Yrotation
                                        End Site
                                        {
                                            OFFSET  -2.582190   0.000000   0.000000
                                        }
                                    }
                                }
                            }
                            JOINT RightFinger1
                            {
                                OFFSET  -8.364480   0.000000   3.252850
                                CHANNELS 3 Zrotation Xrotation Yrotation
                                JOINT RightFinger11
                                {
                                    OFFSET  -4.646930   0.000000   0.000000
                                    CHANNELS 3 Zrotation Xrotation Yrotation
                                    JOINT RightFinger12
                                    {
                                        OFFSET  -2.323470   0.000000   0.000000
                                        CHANNELS 3 Zrotation Xrotation Yrotation
                                        End Site
                                        {
                                            OFFSET  -2.273050   0.000000   0.000000
                                        }
                                    }
                                }
                            }
                            JOINT RightFinger2
                            {
                                OFFSET  -8.364480   0.000000   1.078090
                                CHANNELS 3 Zrotation Xrotation Yrotation
                                JOINT RightFinger21
                                {
                                    OFFSET  -5.111620   0.000000   0.000000
                                    CHANNELS 3 Zrotation Xrotation Yrotation
                                    JOINT RightFinger22
                                    {
                                        OFFSET  -2.788160   0.000000   0.000000
                                        CHANNELS 3 Zrotation Xrotation Yrotation
                                        End Site
                                        {
                                            OFFSET  -2.727660   0.000000   0.000000
                                        }
                                    }
                                }
                            }
                            JOINT RightFinger3
                            {
                                OFFSET  -7.899780   0.000000  -1.078090
                                CHANNELS 3 Zrotation Xrotation Yrotation
                                JOINT RightFinger31
                                {
                                    OFFSET  -4.646930   0.000000   0.000000
                                    CHANNELS 3 Zrotation Xrotation Yrotation
                                    JOINT RightFinger32
                                    {
                                        OFFSET  -2.323470   0.000000   0.000000
                                        CHANNELS 3 Zrotation Xrotation Yrotation
                                        End Site
                                        {
                                            OFFSET  -2.273050   0.000000   0.000000
                                        }
                                    }
                                }
                            }
                            JOINT RightFinger4
                            {
                                OFFSET  -7.435090   0.000000  -3.252850
                                CHANNELS 3 Zrotation Xrotation Yrotation
                                JOINT RightFinger41
                                {
                                    OFFSET  -3.717550   0.000000   0.000000
                                    CHANNELS 3 Zrotation Xrotation Yrotation
                                    JOINT RightFinger42
                                    {
                                        OFFSET  -1.858770   0.000000   0.000000
                                        CHANNELS 3 Zrotation Xrotation Yrotation
                                        End Site
                                        {
                                            OFFSET  -1.818440   0.000000   0.000000
                                        }
                                    }
                                }
                            }
                        }
                    }
                }
            }
        }
    }
    JOINT LeftHip
    {
        OFFSET   9.783040   0.000000   0.000000
        CHANNELS 3 Zrotation Xrotation Yrotation
        JOINT LeftKnee
        {
            OFFSET   0.000032 -41.789100  -0.002222
            CHANNELS 3 Zrotation Xrotation Yrotation
            JOINT LeftAnkle
            {
                OFFSET   0.000087 -41.133200  -0.000135
                CHANNELS 3 Zrotation Xrotation Yrotation
                JOINT LeftToe
                {
                    OFFSET   0.000000  -6.358960  14.674500
                    CHANNELS 3 Zrotation Xrotation Yrotation
                    End Site
                    {
                        OFFSET   0.000000   0.000000   3.913200
                    }
                }
            }
        }
    }
    JOINT RightHip
    {
        OFFSET  -9.783040   0.000000   0.000000
        CHANNELS 3 Zrotation Xrotation Yrotation
        JOINT RightKnee
        {
            OFFSET   0.000047 -41.789100  -0.000896
            CHANNELS 3 Zrotation Xrotation Yrotation
            JOINT RightAnkle
            {
                OFFSET  -0.000117 -41.133300  -0.000248
                CHANNELS 3 Zrotation Xrotation Yrotation
                JOINT RightToe
                {
                    OFFSET   0.000000  -6.358970  14.674500
                    CHANNELS 3 Zrotation Xrotation Yrotation
                    End Site
                    {
                        OFFSET   0.000000   0.000000   3.913200
                    }
                }
            }
        }
    }
}
MOTION
Frames: 6
Frame Time:   0.016667
  3.535520  88.899300   1.486710  -3.198670 -19.703900   0.481606   3.378050  12.360800   0.597153   6.872320  24.735000   0.439938  -1.235140  -3.742540  -0.078310  -2.043030  -7.577200   5.176420 -11.239900  -3.607400   0.594085 -64.018100  33.738200 -19.755300  -3.548420  -7.564690 -13.770400   8.328640  -4.383760  12.307200  42.880100  30.497000 -65.274700 -22.118900   0.006515   0.002716  -6.059470   0.000436   0.005673 -33.035600   6.774560 -10.278700 -27.529600   0.003229   0.017815 -19.270700  -0.000297   0.016461 -28.536700   3.229190  -5.913330 -39.139400   0.000446  -0.000120 -26.066800   0.000423   0.001745 -28.713300   0.995892  -1.817350 -39.687600  -0.000335   0.026919 -26.432000  -0.005879   0.012378 -38.254400  -0.582417   0.738713 -57.387200  -0.001641   0.003635 -38.219800  -0.007845   0.003804   7.690380  -6.098220  17.779700  55.934200  23.357600  54.846400 -13.438800 -18.792200  49.046400  34.416900 -49.394200  58.730300 -57.724600  37.769200  70.160000   7.374720  -0.014295  -0.003286  -1.312650  -0.000760  -0.001930   6.315730   0.983778   8.838500   5.227250   0.004661  -0.002268   3.659060   0.004236  -0.001602  21.217900  -3.169670  -8.139550  21.449900  -0.000577   0.004658  14.285700  -0.002796   0.000492  27.847500  -5.175720  -9.717810  34.047500  -0.002253  -0.002452  22.675600  -0.000974   0.002740  53.962500  -8.903330  -6.498070  81.703700   0.000556   0.011041  54.414700   0.006148   0.000383   1.088580  24.329100   4.977410   0.522174   0.122738   7.089850  -0.978497  -4.015460  -3.153930   0.000000   0.000000   0.000000   0.984213  11.405600  -1.498490  -0.059630  19.028300  -4.896490  -2.150020  -9.394190  -4.296360  -0.000000   0.000000   0.000000
  3.734980  88.858400   1.543660  -2.926080 -19.863600   1.142070   3.304310  12.340900   0.663678   6.701000  24.699300   0.599194  -1.168340  -3.754250  -0.076527  -1.942780  -7.602910   4.650920 -11.199800  -3.620740   0.606541 -64.119000  33.590800 -19.561600  -3.439990  -7.378810 -13.924100   8.382950  -4.309310  12.341600  43.198700  31.110600 -65.879400 -22.116300   0.006514   0.002716  -6.058160   0.000430   0.005783 -32.998100   6.728060 -10.226500 -27.491800   0.003581   0.008086 -19.244300  -0.001453   0.008932 -28.527400   3.250560  -5.952570 -39.061000   0.000444  -0.000119 -26.014600   0.000477   0.002264 -28.709800   0.990980  -1.808520 -39.611700  -0.000333  -0.000806 -26.381500  -0.000514  -0.000784 -38.183900  -0.563489   0.716622 -57.281200  -0.001642   0.003697 -38.149200  -0.007804   0.003881   7.592600  -6.077710  17.726800  55.705700  23.321600  55.102700 -13.503700 -18.433100  49.205700  32.931400 -49.402800  57.205500 -57.028400  37.750400  70.908100   9.058690  -0.006050  -0.002647  -0.470659  -0.000785  -0.001636   5.851370   0.840431   8.166130   4.835170   0.004412  -0.002217   3.384610   0.004318  -0.001512  21.224300  -3.109350  -7.954210  21.441100  -0.000658   0.004674  14.279800  -0.002733   0.000471  27.772200  -5.238800  -9.855530  33.582100  -0.002516  -0.003318  22.365700  -0.001234   0.002734  52.815300  -8.914280  -6.729550  80.016400  -0.006577   0.003159  53.291000  -0.001057   0.000569   1.058030  24.436100   4.831280   0.366511   0.223710   6.951430  -1.053760  -4.010110  -3.497990  -0.000000   0.000000  -0.000000   0.838416  11.418200  -1.497760  -0.001638  19.514000  -5.091460  -2.222610  -9.676650  -4.752060  -0.000000   0.000000   0.000000
  3.925100  88.822200   1.594390  -2.679660 -19.973900   1.707470   3.220150  12.301300   0.754659   6.503960  24.625300   0.810132  -1.095020  -3.748770  -0.071701  -1.821420  -7.594130   4.128690 -11.161900  -3.628340   0.593439 -64.264700  33.387500 -19.378200  -3.283740  -7.113820 -13.902600   8.547780  -4.336380  12.457700  42.992700  30.947200 -65.351300 -22.321300   0.006514   0.002772  -6.160650   0.000413   0.005892 -33.013600   6.703620 -10.186600 -27.499800   0.003556   0.004344 -19.249900  -0.002390   0.004749 -28.535300   3.137200  -5.744250 -38.974500   0.000448  -0.000119 -25.957000   0.000523   0.002834 -28.708500   0.989345  -1.805430 -39.624200  -0.000336  -0.001141 -26.389800  -0.000506  -0.000830 -38.176400  -0.561516   0.714286 -57.270000  -0.001641   0.003761 -38.141800  -0.007763   0.003953   7.579400  -6.110250  17.696100  55.580000  23.219100  55.218700 -13.571600 -17.988300  49.309500  31.810100 -49.377700  56.131100 -56.265900  37.519300  71.035000  10.244800  -0.002608  -0.001785   0.122427  -0.000741  -0.001389   5.610170   0.729050   7.513260   4.629290   0.004154  -0.002163   3.240500   0.004404  -0.001405  21.282800  -3.137790  -8.001040  21.500600  -0.000753   0.004684  14.319400  -0.002670   0.000428  27.693100  -5.095300  -9.619460  32.865300  -0.002768  -0.003359  21.888300  -0.001507   0.002722  51.630700  -8.590030  -6.686360  78.210000  -0.008597  -0.002890  52.088000  -0.004888   0.000747   0.996636  24.520600   4.716620   0.236087   0.291176   6.828880  -1.092180  -4.003700  -3.784080   0.000000   0.000000  -0.000000   0.667264  11.410700  -1.505820   0.083184  19.949600  -5.274050  -2.318700  -9.928790  -5.137840  -0.000000   0.000000   0.000000
  4.107130  88.790200   1.640580  -2.454280 -20.054400   2.189460   3.129930  12.252800   0.859832   6.291110  24.533900   1.052220  -1.019120  -3.739300  -0.066530  -1.694680  -7.574960   3.638810 -11.139900  -3.640320   0.580340 -64.430000  33.154100 -19.205600  -3.113760  -6.851110 -13.802000   8.726330  -4.375170  12.608500  42.723500  30.612600 -64.670600 -22.622600   0.006516   0.002826  -6.311330   0.000395   0.006000 -33.043400   6.679840 -10.137500 -27.521700   0.003476   0.003296 -19.265200  -0.003259   0.002267 -28.551700   2.973110  -5.443180 -38.921000   0.000452  -0.000119 -25.921400   0.000566   0.003449 -28.707900   0.987710  -1.802330 -39.656400  -0.000338  -0.001242 -26.411200  -0.000505  -0.000839 -38.175300  -0.561234   0.713953 -57.268400  -0.001641   0.003825 -38.140700  -0.007723   0.004026   7.597560  -6.178800  17.690100  55.475300  23.098300  55.264800 -13.629100 -17.529700  49.368900  30.975800 -49.347400  55.319800 -55.809900  37.335300  70.962300  11.131500  -0.000793  -0.001182   0.565779  -0.000658  -0.001283   5.526420   0.676018   6.987030   4.555350   0.003888  -0.002111   3.188750   0.004490  -0.001294  21.369200  -3.166230  -8.047870  21.593800  -0.000858   0.004691  14.381500  -0.002614   0.000386  27.646300  -4.721390  -8.957050  32.088200  -0.003024  -0.003365  21.370800  -0.001795   0.002709  50.564800  -7.842840  -6.413090  76.508100  -0.008886  -0.006153  50.954500  -0.006513   0.000917   0.906045  24.599100   4.609800   0.131593   0.321894   6.731890  -1.116450  -3.990120  -4.010980   0.000000   0.000000  -0.000000   0.488383  11.382700  -1.513780   0.164365  20.353200  -5.427270  -2.414590 -10.152800  -5.475680  -0.000000   0.000000   0.000000
  4.285100  88.761300   1.683590  -2.244160 -20.115300   2.592380   3.039300  12.203300   0.963595   6.078030  24.440300   1.291240  -0.953329  -3.728880  -0.063270  -1.585020  -7.554410   3.222710 -11.145800  -3.670840   0.581760 -64.629000  32.887100 -19.032500  -2.930770  -6.649460 -13.536200   8.846160  -4.393210  12.745600  42.522700  30.376200 -64.315200 -22.803200   0.006520   0.002823  -6.401600   0.000386   0.006107 -33.107200   6.640760 -10.057900 -27.563000   0.003336   0.007311 -19.294100  -0.004183   0.001543 -28.563100   2.884160  -5.280150 -38.959400   0.000451  -0.000117 -25.946900   0.000607   0.004101 -28.708700   0.960730  -1.752860 -39.723000  -0.000336  -0.001412 -26.455500  -0.000510  -0.000842 -38.200500  -0.567960   0.721708 -57.306000  -0.001642   0.003890 -38.165800  -0.007685   0.004104   7.638670  -6.271640  17.719600  55.438700  22.954500  55.247800 -13.618000 -17.133000  49.416300  30.628500 -49.197300  54.830600 -55.634500  37.136400  70.478200  11.836100   0.000011  -0.000655   0.918071  -0.000569  -0.001112   5.675330   0.678046   6.676270   4.675690   0.003613  -0.002059   3.272990   0.004566  -0.001194  21.432100  -3.021590  -7.669990  21.625200  -0.000973   0.004700  14.402400  -0.002566   0.000351  27.628700  -4.070650  -7.738550  31.352800  -0.003300  -0.003220  20.881000  -0.002103   0.002697  49.790300  -6.707330  -5.644920  75.172200  -0.006383  -0.004336  50.064800  -0.005011   0.001085   0.772292  24.694000   4.504000   0.065727   0.297865   6.641170  -1.130190  -3.956340  -4.152300  -0.000000   0.000000  -0.000000   0.310655  11.308100  -1.508770   0.231025  20.744700  -5.578370  -2.502830 -10.349700  -5.759020  -0.000000   0.000000  -0.000000
  4.453160  88.738000   1.723730  -2.055440 -20.169300   2.930320   2.949680  12.156100   1.069900   5.866840  24.350600   1.534890  -0.896259  -3.722440  -0.061653  -1.489570  -7.542610   2.854210 -11.151700  -3.706500   0.583183 -64.834100  32.618500 -18.873000  -2.756560  -6.555830 -13.162700   8.904290  -4.399220  12.862900  42.413600  30.258200 -64.163200 -22.887400   0.006523   0.002811  -6.443690   0.000378   0.006214 -33.162800   6.586550  -9.955590 -27.603400   0.003148   0.011326 -19.322400  -0.005108   0.001318 -28.569400   2.845840  -5.209940 -39.030300   0.000450  -0.000116 -25.994200   0.000643   0.004779 -28.711000   0.910187  -1.660550 -39.769800  -0.000334  -0.001551 -26.486600  -0.000524  -0.000843 -38.225600  -0.574686   0.729464 -57.343700  -0.001642   0.003957 -38.190900  -0.007646   0.004183   7.689350  -6.371040  17.764500  55.392800  22.819200  55.226500 -13.594000 -16.828100  49.400800  30.426500 -49.088100  54.483700 -55.648800  37.034300  70.089500  12.390400   0.000265  -0.000325   1.195230  -0.000467  -0.000945   5.958530   0.689317   6.565550   4.907640   0.003331  -0.002010   3.435360   0.004642  -0.001089  21.548100  -2.749680  -6.935650  21.710500  -0.001094   0.004712  14.459200  -0.002525   0.000319  27.603500  -3.384020  -6.450660  30.729800  -0.003578  -0.003010  20.466100  -0.002424   0.002682  49.191500  -5.522480  -4.758120  74.126800  -0.003328  -0.001821  49.368500  -0.003035   0.001245   0.623135  24.785400   4.382820   0.018846   0.273802   6.595000  -1.140250  -3.914930  -4.250250   0.000000   0.000000   0.000000   0.151403  11.254000  -1.500810   0.261587  21.088300  -5.663650  -2.585590 -10.512200  -6.024290   0.000000   0.000000   0.000000
